<?xml version="1.0" encoding="utf-8"?>
<!-- Generator: Adobe Illustrator 23.0.2, SVG Export Plug-In . SVG Version: 6.00 Build 0)  -->
<svg version="1.1" id="Layer_1" xmlns="http://www.w3.org/2000/svg" xmlns:xlink="http://www.w3.org/1999/xlink" x="0px" y="0px"
	 viewBox="0 0 80 80" style="enable-background:new 0 0 80 80;" xml:space="preserve">
<style type="text/css">
	.st0{fill:#FDF4A1;}
</style>
<g>
	<path d="M61.7,8.1L61.7,8.1c-5.3,0-9.8,3.8-10.9,8.9h-1.2l3.5-12.2h3.5c0.5,0,0.9-0.4,0.9-0.9V1.4c0-0.5-0.4-0.9-0.9-0.9h-5.1
		c-1,0-1.8,0.6-2.1,1.6l-4.4,15H13.3c-1.2,0-2.2,1-2.2,2.2c0,0.5,0.2,1,0.5,1.4l23.8,30v23.8H26c-0.5,0-0.9,0.4-0.9,0.9v2.5
		c0,0.5,0.4,0.9,0.9,0.9h23c0.5,0,0.9-0.4,0.9-0.9v-2.5c0-0.5-0.4-0.9-0.9-0.9h-9.3V50.6l17-21.5c1.6,0.8,3.3,1.2,5,1.2l0,0
		c6.1,0,11.1-5,11.1-11.1S67.9,8.1,61.7,8.1z M46.3,28.5l2.1-7.1h8.9l-5.6,7.1H46.3z M17.8,21.4h26l-2.1,7.1H23.4L17.8,21.4z
		 M40.5,32.9L38,41.6c-0.1,0.5,0.1,1,0.6,1.1l1.5,0.4l-2.5,3.2L26.9,32.9H40.5z M48.2,32.9l-4.9,6.2l1.8-6.2H48.2z M63.4,20.6
		c0.4-0.5,0.5-1,0.5-1.6c-0.1-0.6-0.4-1.1-0.8-1.5c-0.4-0.3-0.9-0.5-1.4-0.5h-6.4c1-3.1,4.2-5,7.5-4.5c1.8,0.3,3.3,1.3,4.4,2.7
		c1,1.5,1.5,3.3,1.2,5C67.8,23.6,65,26,61.7,26l0,0c-0.8,0-1.5-0.1-2.3-0.4L63.4,20.6z"/>
	<path class="st0" d="M63.4,20.6c0.4-0.5,0.5-1,0.5-1.6c-0.1-0.6-0.4-1.1-0.8-1.5c-0.4-0.3-0.9-0.5-1.4-0.5h-6.4
		c1-3.1,4.2-5,7.5-4.5c1.8,0.3,3.3,1.3,4.4,2.7c1,1.5,1.5,3.3,1.2,5C67.8,23.6,65,26,61.7,26l0,0c-0.8,0-1.5-0.1-2.3-0.4L63.4,20.6z
		"/>
</g>
</svg>
