<?xml version="1.0" encoding="utf-8"?>
<!-- Generator: Adobe Illustrator 23.0.3, SVG Export Plug-In . SVG Version: 6.00 Build 0)  -->
<svg version="1.1" id="Layer_1" xmlns="http://www.w3.org/2000/svg" xmlns:xlink="http://www.w3.org/1999/xlink" x="0px" y="0px"
	 viewBox="0 0 80 80" style="enable-background:new 0 0 80 80;" xml:space="preserve">
<style type="text/css">
	.st0{fill:#231F20;}
	.st1{fill:#FCF4A2;}
</style>
<g>
	<path class="st0" d="M76.1,67.6c0,0,0-0.1,0-0.1c0-0.1,0-0.2,0-0.3c0-0.1,0-0.1,0-0.2c0-0.1,0-0.2,0-0.3c0,0,0,0,0-0.1L63,4.3
		c-0.2-1-1.1-1.7-2-1.7H18.7c-1,0-1.8,0.7-2,1.7L4,66.6c0,0,0,0.1,0,0.1c0,0.1,0,0.2,0,0.3c0,0.1,0,0.1,0,0.2c0,0.1,0,0.2,0,0.3
		c0,0.1,0,0.1,0,0.2c0,0.1,0.1,0.2,0.1,0.2c0,0.1,0,0.1,0.1,0.2c0,0,0,0.1,0,0.1l5.8,9.5c0.4,0.6,1.1,1,1.8,1h57.5
		c0.8,0,1.5-0.4,1.9-1.1l4.8-9.5c0,0,0,0,0,0c0,0,0-0.1,0-0.1C76,67.8,76,67.7,76.1,67.6z M20.4,6.8h38.9L71.5,65H8.6L20.4,6.8z
		 M68,74.5H13l-3.2-5.3h60.9L68,74.5z"/>
	<g>
		<ellipse class="st0" cx="40" cy="20.3" rx="11.7" ry="7.7"/>
		<path class="st0" d="M40,29.8c-7.6,0-13.5-4.2-13.5-9.5c0-5.3,5.9-9.5,13.5-9.5c7.6,0,13.5,4.2,13.5,9.5
			C53.5,25.6,47.6,29.8,40,29.8z M40,14.4c-5.4,0-9.9,2.7-9.9,5.9c0,3.2,4.6,5.9,9.9,5.9s9.9-2.7,9.9-5.9
			C49.9,17.1,45.4,14.4,40,14.4z"/>
	</g>
	<g>
		<path class="st1" d="M25.8,32.8c0,0,6.9,5.8,6.4,14.9c0,0-7.9,5.7-18.4,4.7c0,0-5.9-7.3-4.8-16.2C9.1,36.1,16.7,29.5,25.8,32.8z"
			/>
		<path class="st0" d="M16.5,54.3c-0.9,0-1.9,0-2.8-0.1c-0.5,0-0.9-0.3-1.2-0.7c-0.3-0.3-6.3-8-5.2-17.6c0.1-0.4,0.3-0.8,0.6-1.1
			c0.3-0.3,8.5-7.3,18.5-3.6c0.2,0.1,0.4,0.2,0.5,0.3c0.3,0.3,8.3,8.1,7.8,17.9c0,0.5-0.3,1-0.7,1.3C33.8,51,26.1,54.3,16.5,54.3z
			 M14.8,50.7c7.7,0.5,13.7-2.7,15.7-3.9C30.5,40,26,35.4,24.9,34.4c-6.7-2.3-12.4,1.4-14.1,2.7C10.3,43.5,13.6,48.9,14.8,50.7z"/>
	</g>
	<g>
		<path class="st1" d="M73.7,53.8c0,0,1.1,8.9-5.4,15.3c0,0-9.7-1.1-16.7-8.9c0,0,0.6-9.3,7.5-15.2C59.1,45,69.3,45.2,73.7,53.8z"/>
		<path class="st0" d="M68.3,70.9c-0.1,0-0.1,0-0.2,0c-0.4,0-13.5-1.5-20.9-9.7c-0.3-0.4-0.5-0.8-0.4-1.3c0-0.4,3.8-9.9,11.2-16.2
			c0.3-0.3,0.7-0.4,1.2-0.4c0.5,0,11.2,0.3,16.1,9.8c0.1,0.2,0.2,0.4,0.2,0.6c0,0.4,1.1,9.9-5.9,16.8C69.2,70.7,68.8,70.9,68.3,70.9
			z M53.4,59.5c5.3,5.5,11.9,7.2,14.3,7.7c4.5-5,4.4-11.4,4.3-12.9c-3.4-6.2-10.1-7.3-12.2-7.5C55,51.2,53.7,57.4,53.4,59.5z"/>
	</g>
	<g>
		<path class="st1" d="M61.5,16.3c0,0,1.2,6-2.8,9.8c0,0-6.6-1.2-11.7-6.8c0,0-0.1-6.1,4.2-9.6C51.2,9.6,58,10.3,61.5,16.3z"/>
		<path class="st0" d="M58.8,27.9c-0.1,0-0.2,0-0.3,0c-0.3-0.1-7.7,0.5-13.2-5.5c-0.3-0.3-0.5-0.7-0.5-1.2c0-0.3,0.4-8.9,5.3-12.9
			c0.4-0.3,0.8-0.4,1.3-0.4c0.3,0,7.8,0.8,11.7,7.5c0.1,0.2,0.2,0.3,0.2,0.5c0.1,0.3,1.4,7-3.3,11.5C59.7,27.7,59.2,27.9,58.8,27.9z
			 M48.8,18.6c3.5,3.5,7.6,5,9.4,5.5c2.1-2.7,1.8-6.2,1.7-7.2c-2.4-3.8-6.4-5-8.1-5.4C49.4,13.9,48.9,17.2,48.8,18.6z"/>
	</g>
</g>
</svg>
