<?xml version="1.0" encoding="utf-8"?>
<!-- Generator: Adobe Illustrator 23.0.2, SVG Export Plug-In . SVG Version: 6.00 Build 0)  -->
<svg version="1.1" id="Layer_1" xmlns="http://www.w3.org/2000/svg" xmlns:xlink="http://www.w3.org/1999/xlink" x="0px" y="0px"
	 viewBox="0 0 80 80" style="enable-background:new 0 0 80 80;" xml:space="preserve">
<style type="text/css">
	.st0{fill:#FDF4A1;}
</style>
<g>
	<path class="st0" d="M29.1,15.2c-1.3,0.8-3.2,2.1-3.2,4.6c0,1.1,0.9,2,2.1,2s2.1-0.9,2.1-2c0-0.3,0.3-0.6,1.4-1.3
		c1.3-0.8,3.2-2.1,3.2-4.6s-1.9-3.8-3.2-4.6C30.3,8.6,30,8.4,30,8c0-0.3,0.3-0.6,1.4-1.3c1.3-0.8,3.2-2.1,3.2-4.6c0-1.1-0.9-2-2.1-2
		c-1.1,0-2.1,0.9-2.1,2c0,0.3-0.3,0.6-1.4,1.3c-1.3,0.8-3.2,2.1-3.2,4.6s1.9,3.8,3.2,4.6c1.1,0.7,1.4,1,1.4,1.3
		C30.4,14.2,30.2,14.5,29.1,15.2z"/>
	<path class="st0" d="M39.5,12.6c1.1,0.7,1.4,1,1.4,1.3s-0.3,0.6-1.4,1.3l0,0c-1.3,0.8-3.2,2.1-3.2,4.6c0,1.1,0.9,2,2.1,2
		c1.1,0,2.1-0.9,2.1-2c0-0.3,0.3-0.6,1.4-1.3c1.3-0.8,3.2-2.1,3.2-4.6s-1.9-3.8-3.2-4.6c-1.1-0.7-1.4-1-1.4-1.3s0.3-0.6,1.4-1.3
		c1.2-0.8,3.1-2,3.1-4.6c0-1.1-0.9-2-2.1-2c-1.1,0-2.1,0.9-2.1,2c0,0.3-0.3,0.6-1.4,1.3c-1.3,0.8-3.2,2.1-3.2,4.6
		C36.3,10.5,38.2,11.8,39.5,12.6z"/>
	<path class="st0" d="M50,15.2c-1.3,0.8-3.2,2.1-3.2,4.6c0,1.1,0.9,2,2.1,2c1.1,0,2.1-0.9,2.1-2c0-0.3,0.3-0.6,1.4-1.3
		c1.3-0.8,3.2-2.1,3.2-4.6s-1.9-3.8-3.2-4.6C51.3,8.6,51,8.3,51,8s0.3-0.6,1.4-1.3c1.3-0.8,3.2-2.1,3.2-4.6c0-1.1-0.9-2-2.1-2
		c-1.1,0-2.1,0.9-2.1,2c0,0.3-0.3,0.6-1.4,1.3c-1.3,0.8-3.2,2.1-3.2,4.6s1.9,3.8,3.2,4.6c1.1,0.7,1.4,1,1.4,1.3
		C51.3,14.2,51.1,14.5,50,15.2z"/>
	<path d="M72.9,35.8H68c0.1-0.8,0.2-1.6,0.2-2.3c1.8-0.8,3-2.6,3-4.6c0-2.8-2.3-5-5-5H12.4c-2.8,0-5,2.3-5,5c0,2,1.2,3.8,3,4.6
		c0,0.8,0.1,1.6,0.2,2.3H5.8c-1.1,0-2.1,0.9-2.1,2.1C3.7,39,4.6,40,5.8,40h5.8c2.1,7.2,7,13.4,13.6,17.1l-9.9,18.5h-2
		c-1.1,0-2.1,0.9-2.1,2.1c0,1.1,0.9,2.1,2.1,2.1h6.4c1.1,0,2.1-0.9,2.1-2.1c0-1.1-0.8-1.9-1.8-2.1l4.9-9.2h29.2l4.9,9.2h-0.1
		c-1.1,0-2.1,0.9-2.1,2.1c0,1.1,0.9,2.1,2.1,2.1h6.4c1.1,0,2.1-0.9,2.1-2.1c0-1.1-0.9-2.1-2.1-2.1h-1.6l-9.9-18.7
		c6.4-3.7,11.2-9.9,13.3-17h5.8c1.1,0,2.1-0.9,2.1-2.1C75,36.7,74,35.8,72.9,35.8z M39.3,56.6c-12.9,0-23.7-9.9-24.7-22.7H64
		C63,46.7,52.2,56.6,39.3,56.6z M39.3,60.8c3.7,0,7.3-0.7,10.7-2.1l1.9,3.5H27.1l1.8-3.4C32.2,60.1,35.7,60.8,39.3,60.8z M67.1,28.9
		c0,0.5-0.4,0.9-0.9,0.9H12.4c-0.5,0-0.9-0.4-0.9-0.9S12,28,12.4,28h53.8C66.7,28,67.1,28.4,67.1,28.9z"/>
	<path d="M58.4,41.3c-0.5-0.3-1-0.4-1.6-0.3c-0.5,0.1-1,0.5-1.3,0.9c-3.5,5.6-9.6,9-16.2,9c-1.1,0-2.1,0.9-2.1,2.1
		c0,1.1,0.9,2.1,2.1,2.1c8.1,0,15.4-4.1,19.7-10.9C59.7,43.2,59.4,41.9,58.4,41.3z"/>
	<path d="M61,35.8c-0.7-0.5-1.6-0.5-2.3-0.1c-0.9,0.5-1.2,1.6-0.9,2.6l0,0c0.3,0.8,1.1,1.3,1.9,1.3h0.1c0.8-0.1,1.6-0.6,1.8-1.4
		C62,37.3,61.7,36.3,61,35.8z"/>
</g>
</svg>
