<?xml version="1.0" encoding="utf-8"?>
<!-- Generator: Adobe Illustrator 23.0.3, SVG Export Plug-In . SVG Version: 6.00 Build 0)  -->
<svg version="1.1" id="Layer_1" xmlns="http://www.w3.org/2000/svg" xmlns:xlink="http://www.w3.org/1999/xlink" x="0px" y="0px"
	 viewBox="0 0 80 80" style="enable-background:new 0 0 80 80;" xml:space="preserve">
<style type="text/css">
	.st0{fill:#FCF4A2;}
	.st1{fill:#231F20;}
</style>
<g>
	<polygon class="st0" points="53.4,2.9 57.4,11 66.4,12.3 59.9,18.7 61.5,27.6 53.4,23.4 45.4,27.6 46.9,18.7 40.4,12.3 49.4,11 	
		"/>
	<path class="st1" d="M45.4,29.4c-0.4,0-0.7-0.1-1-0.3c-0.5-0.4-0.8-1-0.7-1.7l1.4-8.1l-5.9-5.7c-0.5-0.5-0.6-1.1-0.4-1.8
		c0.2-0.6,0.7-1.1,1.4-1.2l8.1-1.2l3.6-7.3c0.3-0.6,0.9-1,1.6-1s1.3,0.4,1.6,1l3.6,7.3l8.1,1.2c0.7,0.1,1.2,0.6,1.4,1.2
		c0.2,0.6,0,1.3-0.4,1.8l-5.9,5.7l1.4,8.1c0.1,0.6-0.2,1.3-0.7,1.7c-0.5,0.4-1.2,0.4-1.8,0.1l-7.2-3.8l-7.2,3.8
		C45.9,29.3,45.6,29.4,45.4,29.4z M53.4,21.7c0.3,0,0.6,0.1,0.8,0.2l4.9,2.6L58.2,19c-0.1-0.6,0.1-1.1,0.5-1.5l4-3.9l-5.5-0.8
		c-0.6-0.1-1.1-0.4-1.3-0.9l-2.5-5l-2.5,5c-0.3,0.5-0.7,0.9-1.3,0.9l-5.5,0.8l4,3.9c0.4,0.4,0.6,1,0.5,1.5l-0.9,5.5l4.9-2.6
		C52.9,21.8,53.1,21.7,53.4,21.7z"/>
	<path d="M59.9,30.5l0-0.4l-5.4-2.8l0.2,1.5c0.2,1.5,0.3,3.2,0.3,4.9c0,11.6-11.6,27-16,32.4c-4.4-5.5-16-20.8-16-32.4
		c0-11.9,4.7-17.3,15.2-17.6l1.8,0l-1.7-1.6c-0.6-0.6-1-1.5-0.8-2.4l0.1-0.9l-0.9,0.1c-5.2,0.4-9.4,2-12.5,4.8
		c-4.1,3.8-6.2,9.7-6.2,17.7c0,6.9,3.2,15.5,9.6,25.3c4.6,7.2,9.3,12.4,9.5,12.6c0.5,0.5,1.1,0.8,1.9,0.8c0.7,0,1.4-0.3,1.9-0.8
		c0.2-0.2,4.8-5.4,9.5-12.6c6.4-9.9,9.6-18.4,9.6-25.3C60,32.6,59.9,31.5,59.9,30.5z"/>
	<path class="st1" d="M47.6,30.6c0,0.1,0,0.2,0,0.2c0,4.3-3.5,7.8-7.8,7.8c-4.3,0-7.8-3.5-7.8-7.8c0-4.3,3.5-7.8,7.8-7.8
		c0.9,0,1.8,0.2,2.6,0.5l0.5-2.9c-1-0.3-2-0.5-3.1-0.5C33.8,20,29,24.9,29,30.8s4.8,10.8,10.8,10.8s10.8-4.8,10.8-10.8
		c0-0.6,0-1.2-0.1-1.7L47.6,30.6z"/>
	<g>
		<path class="st0" d="M55.2,65.6c-0.2,0-0.4,0-0.6-0.1c-0.5-0.1-1-0.3-1.6-0.4c-0.9-0.2-1.5-1-1.2-1.7s1.2-1.2,2.1-1
			c0.6,0.1,1.2,0.3,1.7,0.4c0.9,0.3,1.4,1.1,1.1,1.8C56.6,65.2,55.9,65.6,55.2,65.6z"/>
		<path class="st0" d="M39.1,77.9l-0.4,0c-1,0-1.7-0.6-1.7-1.4c0-0.8,0.8-1.4,1.7-1.4c0,0,0,0,0,0l0.4,0c0.9,0,1.9,0,2.8-0.1
			c0.9,0,1.8,0.6,1.8,1.4c0,0.8-0.7,1.4-1.7,1.5C41.1,77.9,40.1,77.9,39.1,77.9z M32.6,77.6c-0.1,0-0.1,0-0.2,0
			c-1.1-0.1-2.2-0.2-3.3-0.4c-0.9-0.1-1.6-0.9-1.4-1.6c0.2-0.8,1-1.3,2-1.2c1,0.1,2.1,0.3,3.1,0.3c0.9,0.1,1.6,0.8,1.5,1.6
			C34.2,77.1,33.4,77.6,32.6,77.6z M48.1,77.4c-0.8,0-1.6-0.5-1.7-1.2c-0.1-0.8,0.5-1.5,1.5-1.6c1.1-0.1,2.1-0.3,3.1-0.5
			c0.9-0.2,1.9,0.3,2.1,1.1c0.2,0.8-0.4,1.5-1.3,1.7c-1.1,0.2-2.2,0.4-3.3,0.5C48.3,77.4,48.2,77.4,48.1,77.4z M23.4,76.1
			c-0.2,0-0.4,0-0.5-0.1c-1.2-0.3-2.3-0.7-3.2-1c-0.9-0.3-1.2-1.2-0.8-1.9c0.4-0.7,1.4-1,2.3-0.7c0.8,0.3,1.8,0.6,2.8,0.9
			c0.9,0.2,1.4,1,1.1,1.8C24.8,75.7,24.1,76.1,23.4,76.1z M57.2,75.4c-0.7,0-1.3-0.3-1.6-0.9c-0.4-0.7,0-1.6,0.9-1.9
			c1-0.4,1.9-0.7,2.6-1.1c0.8-0.4,1.9-0.3,2.4,0.4c0.5,0.6,0.4,1.5-0.4,2c-0.9,0.5-1.9,1-3.1,1.4C57.7,75.3,57.4,75.4,57.2,75.4z
			 M15.8,71.9c-0.7,0-1.3-0.3-1.6-0.9c-0.3-0.5-0.4-1.1-0.4-1.7c0-0.7,0.2-1.5,0.7-2.1c0.5-0.7,1.5-0.9,2.4-0.5
			c0.8,0.4,1.1,1.2,0.7,1.9c-0.2,0.3-0.3,0.5-0.3,0.8c0,0.2,0,0.4,0.1,0.6c0.4,0.7,0,1.6-0.9,1.9C16.2,71.9,16,71.9,15.8,71.9z
			 M62.6,69.9c-0.7,0-1.4-0.4-1.6-1c-0.2-0.5-0.7-0.9-1.4-1.4c-0.7-0.5-0.9-1.4-0.3-2c0.6-0.6,1.7-0.7,2.4-0.2
			c1.3,0.8,2.1,1.8,2.5,2.7c0.3,0.7-0.2,1.5-1.1,1.8C63,69.9,62.8,69.9,62.6,69.9z"/>
		<path class="st0" d="M20.8,66.3c-0.7,0-1.3-0.3-1.6-0.8c-0.4-0.7,0-1.6,0.9-1.9c0.5-0.2,1.1-0.4,1.7-0.6c0.9-0.3,1.9,0.1,2.2,0.8
			c0.3,0.7-0.1,1.5-1,1.8c-0.5,0.2-1,0.3-1.5,0.5C21.3,66.3,21,66.3,20.8,66.3z"/>
	</g>
</g>
</svg>
