<?xml version="1.0" encoding="utf-8"?>
<!-- Generator: Adobe Illustrator 23.0.2, SVG Export Plug-In . SVG Version: 6.00 Build 0)  -->
<svg version="1.1" id="Layer_1" xmlns="http://www.w3.org/2000/svg" xmlns:xlink="http://www.w3.org/1999/xlink" x="0px" y="0px"
	 viewBox="0 0 80 80" style="enable-background:new 0 0 80 80;" xml:space="preserve">
<style type="text/css">
	.st0{fill:#FDF4A1;}
</style>
<g>
	<g>
		<path d="M3.4,53.2L4.6,54c3.1,1.9,7.1,1.9,10.2,0.1l1.9-1.1c1.8-1,3.9-1,5.7,0l2.3,1.4c1.4,0.8,3,1.3,4.5,1.3s3.1-0.4,4.5-1.2
			l2.5-1.5c1.8-1,3.9-1,5.7,0l1.7,1c3.1,1.9,7.1,1.9,10.2,0.1l1.9-1.1c1.8-1,3.9-1,5.7,0l1.7,1c3.1,1.9,7.1,1.9,10.2,0.1l1.4-0.8
			c0.6-0.3,0.8-1.1,0.4-1.6l-1-1.8c-0.3-0.6-1.1-0.8-1.6-0.4l-1.4,0.8c-1.8,1-3.9,1-5.7,0L63,48.8c-1.9-1.1-4.1-1.5-6.2-1.1
			c-0.7,0.1-1.4-0.4-1.4-1.2V15.1c0-4.8,3.9-8.8,8.8-8.8h1.4c0.7,0,1.2-0.5,1.2-1.2V3c0-0.7-0.5-1.2-1.2-1.2h-1.4
			C56.9,1.8,51,7.7,51,15v1.3c0,0.7-0.5,1.2-1.2,1.2H33.3c-0.7,0-1.2-0.5-1.2-1.2V15c0-4.8,3.9-8.8,8.8-8.8h1.4
			c0.7,0,1.2-0.5,1.2-1.2V3c0-0.7-0.5-1.2-1.2-1.2h-1.4c-7.3,0-13.2,5.9-13.2,13.2v35.8c-0.2-0.1-0.4-0.2-0.6-0.3l-2.9-1.7
			c-2.8-1.7-6.2-1.7-9,0l-2.5,1.5c-1.8,1-3.9,1-5.7,0l-1.2-0.7c-0.6-0.3-1.3-0.2-1.6,0.4l-1.1,1.8C2.6,52.2,2.8,52.9,3.4,53.2z
			 M32.1,23.2c0-0.7,0.5-1.2,1.2-1.2h16.4c0.7,0,1.2,0.5,1.2,1.2v9.1c0,0.7-0.5,1.2-1.2,1.2H33.3c-0.7,0-1.2-0.5-1.2-1.2V23.2z
			 M32.1,39.2c0-0.7,0.5-1.2,1.2-1.2h16.4c0.7,0,1.2,0.5,1.2,1.2v10.6c0,0.5-0.3,1-0.8,1.1c-1.2,0.4-2.5,0.3-3.6-0.4l-2.3-1.4
			c-3.1-1.9-7.1-1.9-10.2-0.1c-0.8,0.5-1.8-0.1-1.8-1v-8.8H32.1z"/>
		<path d="M72.4,60.6L71,61.4c-1.8,1-3.9,1-5.7,0L63,60.1c-2.8-1.7-6.2-1.7-9,0l-2.5,1.5c-1.8,1-3.9,1-5.7,0l-1.7-1
			c-3.1-1.9-7.1-1.9-10.2-0.1l-1.9,1c-1.8,1-3.9,1-5.7,0l-1.7-1c-3.1-1.9-7.1-1.9-10.2-0.1l-1.9,1.1c-1.8,1-3.9,1-5.7,0l-1.2-0.7
			C5,60.5,4.3,60.6,4,61.2L2.9,63c-0.3,0.6-0.2,1.3,0.4,1.6l1.2,0.7c3.1,1.9,7.1,1.9,10.2,0.1l1.9-1.1c1.8-1,3.9-1,5.7,0l1.7,1
			c3.1,1.9,7.1,1.9,10.2,0.1l1.9-1.1c1.8-1,3.9-1,5.7,0l1.7,1c3.1,1.9,7.1,1.9,10.2,0.1l1.9-1.1c1.8-1,3.9-1,5.7,0l2.3,1.4
			c1.4,0.8,3,1.3,4.5,1.3s3.1-0.4,4.5-1.2l2.1-1.2c0.6-0.3,0.8-1.1,0.4-1.6L74,61C73.7,60.5,73,60.3,72.4,60.6z"/>
		<path d="M74,72.3c-0.3-0.6-1.1-0.8-1.6-0.4L71,72.7c-1.8,1-3.9,1-5.7,0L63,71.3c-2.8-1.7-6.2-1.7-9-0.1l-2.5,1.5
			c-1.8,1-3.9,1-5.7,0l-2.3-1.4c-2.8-1.7-6.2-1.7-9-0.1L32,72.7c-1.8,1-3.9,1-5.7,0L24,71.3c-2.8-1.7-6.2-1.7-9-0.1l-3,1.9
			c-1.4,0.8-3.1,0.8-4.4,0L5.7,72c-0.6-0.3-1.3-0.2-1.6,0.4L3,74.2c-0.3,0.6-0.2,1.3,0.4,1.6l1.8,1.1c2.8,1.7,6.2,1.7,9,0l2.5-1.5
			c1.8-1,3.9-1,5.7,0l2.3,1.4c2.8,1.7,6.2,1.7,9,0l3.1-1.8c1.4-0.8,3.1-0.8,4.5,0l2.9,1.7c2.8,1.7,6.2,1.7,9,0l3.1-1.8
			c1.4-0.8,3.1-0.8,4.5,0l2.9,1.7c1.4,0.8,3,1.3,4.5,1.3s3.1-0.4,4.5-1.2l2.1-1.2c0.6-0.3,0.8-1.1,0.4-1.6L74,72.3z"/>
	</g>
	<path class="st0" d="M29,60.2c-2.8,0-5.3-1.1-6.6-2.1c-0.6-0.4-0.7-1.3-0.3-1.9c0.4-0.6,1.3-0.7,1.9-0.3c0.2,0.1,4.9,3.4,9.7,0
		c0.6-0.4,1.5-0.3,1.9,0.3s0.3,1.5-0.3,1.9C33.1,59.6,31,60.2,29,60.2z"/>
	<path class="st0" d="M68.2,60.2c-2.4,0-4.5-1.1-5.6-2.1c-0.5-0.4-0.6-1.3-0.3-1.9c0.4-0.6,1.1-0.7,1.6-0.3c0.2,0.1,4.2,3.4,8.3,0
		c0.5-0.4,1.2-0.3,1.6,0.3s0.3,1.5-0.3,1.9C71.8,59.6,69.9,60.2,68.2,60.2z"/>
	<path class="st0" d="M48.4,71c-2.8,0-5.3-1.1-6.6-2.1c-0.6-0.4-0.7-1.3-0.3-1.9s1.3-0.7,1.9-0.3c0.2,0.1,4.9,3.4,9.7,0
		c0.6-0.4,1.5-0.3,1.9,0.3c0.4,0.6,0.3,1.5-0.3,1.9C52.6,70.5,50.4,71,48.4,71z"/>
	<path class="st0" d="M8.8,71.5c-2.4,0-4.4-1.1-5.5-2.1C2.7,69,2.6,68.1,3,67.5s1.1-0.7,1.6-0.3c0.2,0.1,4.1,3.4,8.1,0
		c0.5-0.4,1.2-0.3,1.6,0.3c0.4,0.6,0.3,1.5-0.3,1.9C12.3,70.9,10.5,71.5,8.8,71.5z"/>
</g>
</svg>
