<?xml version="1.0" encoding="utf-8"?>
<!-- Generator: Adobe Illustrator 23.0.2, SVG Export Plug-In . SVG Version: 6.00 Build 0)  -->
<svg version="1.1" id="Layer_1" xmlns="http://www.w3.org/2000/svg" xmlns:xlink="http://www.w3.org/1999/xlink" x="0px" y="0px"
	 viewBox="0 0 80 80" style="enable-background:new 0 0 80 80;" xml:space="preserve">
<style type="text/css">
	.st0{fill:#231F20;}
	.st1{fill:#FDF4A1;}
</style>
<g>
	<path class="st0" d="M68.4,65.7H11.2c-1,0-1.9-0.8-1.9-1.9V36.8c0-1,0.8-1.9,1.9-1.9h57.2c1,0,1.9,0.8,1.9,1.9v27.1
		C70.3,64.9,69.4,65.7,68.4,65.7z M13.1,62h53.5V38.6H13.1V62z"/>
	<path class="st0" d="M68.4,38.6c-0.3,0-0.5-0.1-0.8-0.2L39.8,26L12,38.5c-0.9,0.4-2,0-2.5-0.9c-0.4-0.9,0-2,0.9-2.5l28.6-12.8
		c0.5-0.2,1-0.2,1.5,0l28.6,12.8c0.9,0.4,1.4,1.5,0.9,2.5C69.8,38.2,69.1,38.6,68.4,38.6z"/>
	<path class="st0" d="M60.2,55.4H48.5c-1,0-1.9-0.8-1.9-1.9v-11c0-1,0.8-1.9,1.9-1.9h11.7c1,0,1.9,0.8,1.9,1.9v11
		C62,54.6,61.2,55.4,60.2,55.4z M50.3,51.7h8v-7.3h-8V51.7z"/>
	<path class="st0" d="M31.3,65.7H20.4c-1,0-1.9-0.8-1.9-1.9V48c0-1,0.8-1.9,1.9-1.9h10.9c1,0,1.9,0.8,1.9,1.9v15.8
		C33.2,64.9,32.3,65.7,31.3,65.7z M22.3,62h7.2V49.9h-7.2V62z"/>
</g>
<g>
	<path class="st0" d="M9.4,36.8C9.4,36.8,9.4,36.8,9.4,36.8L9.4,36.8c0-0.1,0-0.1,0-0.2c0-0.1,0-0.2,0-0.2c0-0.1,0-0.1,0-0.2
		c0,0,0,0,0-0.1C7.1,29,5.8,21.4,5.8,13.3L40,5.4l34.2,7.9c0,8.3-1.3,16.2-3.9,23.6v9.4c5.2-10.4,7.7-21.9,7.5-34.4
		c0-0.8-0.6-1.6-1.4-1.7l-36-8.3c-0.3-0.1-0.5-0.1-0.8,0l-36,8.3c-0.8,0.2-1.4,0.9-1.4,1.7C2,24.1,4.4,35.4,9.4,45.6V36.8z"/>
	<path class="st1" d="M69.5,15.4L40.4,8.7c-0.3-0.1-0.5-0.1-0.8,0l-29.1,6.7c-0.8,0.2-1.4,0.9-1.4,1.7c-0.1,6.1,0.6,12,2.1,17.5
		l3.4-1.5c-1.2-4.6-1.8-9.5-1.9-14.5L40,12.4l27.3,6.3c0,5.1-0.7,10-1.9,14.7l3.4,1.5c1.5-5.6,2.3-11.5,2.2-17.7
		C70.9,16.3,70.3,15.6,69.5,15.4z"/>
	<path class="st1" d="M40,70.5c0.3,0,0.6-0.1,0.8-0.2c0.2-0.1,3-1.5,7-4.5h-6.4c-0.6,0.4-1,0.6-1.4,0.8c-0.4-0.2-0.8-0.5-1.4-0.8
		h-6.4c3.9,3,6.8,4.5,7,4.5C39.4,70.4,39.7,70.5,40,70.5z"/>
	<path class="st0" d="M50.8,65.7c-4.9,4.3-9.1,6.8-10.8,7.8c-1.7-1-5.9-3.5-10.8-7.8h-5.4c7.9,7.8,15,11.3,15.3,11.5
		c0.2,0.1,0.5,0.2,0.8,0.2c0.3,0,0.6-0.1,0.8-0.2c0.3-0.2,7.4-3.7,15.3-11.5H50.8z"/>
</g>
<rect x="50.3" y="44.4" class="st1" width="8" height="7.3"/>
</svg>
