<?xml version="1.0" encoding="utf-8"?>
<!-- Generator: Adobe Illustrator 23.0.2, SVG Export Plug-In . SVG Version: 6.00 Build 0)  -->
<svg version="1.1" id="Layer_1" xmlns="http://www.w3.org/2000/svg" xmlns:xlink="http://www.w3.org/1999/xlink" x="0px" y="0px"
	 viewBox="0 0 80 80" style="enable-background:new 0 0 80 80;" xml:space="preserve">
<style type="text/css">
	.st0{fill:#FDF4A1;}
</style>
<g>
	<g>
		<path d="M77.1,47.2h-9.5c-0.6-1.7-2-3.6-4.3-3.9C63,43.1,62.7,43,62.4,43c0,0,0,0-0.1,0H45.7c-0.4,0-1.7,0-3,1.2
			c-0.8,0.7-1.4,1.7-1.9,3H2.2c-1.1,0-1.9,0.9-1.9,1.9v18.5c0,5.7,4.6,10.3,10.3,10.3h58.2c5.7,0,10.3-4.6,10.3-10.3V49.1
			C79,48.1,78.1,47.2,77.1,47.2z M62.4,45.7L62.4,45.7c0.3,0,0.5-0.1,0.7-0.2c1,0.2,1.6,0.9,2,1.6h-5c0.1-0.2,0.3-0.4,0.4-0.6
			C61,46,61.6,45.7,62.4,45.7z M45.5,45.7C45.6,45.7,45.5,45.7,45.5,45.7h12.2c-2.5,4-2.1,11.6-1.7,15H42.2
			c-0.6-9.8,1.1-13.2,2.2-14.3C45,45.8,45.4,45.7,45.5,45.7z M75.1,67.6c0,3.5-2.9,6.4-6.4,6.4H10.5c-3.5,0-6.4-2.9-6.4-6.4V51.1
			h35.6c-0.5,2.9-0.5,6.6-0.2,11.1c0.1,0.7,0.7,1.3,1.4,1.3h16.6c0.4,0,0.8-0.2,1-0.5c0.3-0.3,0.4-0.7,0.3-1.1
			c-0.3-2.2-0.7-7-0.1-10.8H75L75.1,67.6L75.1,67.6z"/>
		<path d="M4.2,47.1c0.1,0,0.3,0,0.4,0c0.9,0,1.7-0.6,1.9-1.6c0-0.2,1.2-5.5,6.3-5.6h0.1c4.9,0,5.8,4.9,5.9,5.5l0,0
			c0,0.1,0,0.1,0.1,0.2c0,0.1,0,0.1,0.1,0.2c0,0,0,0.1,0.1,0.1c0,0.1,0.1,0.2,0.1,0.2l0,0c0.1,0.1,0.1,0.2,0.2,0.2l0,0
			c0.3,0.3,0.6,0.5,1,0.5l0,0l0,0c0.1,0,0.2,0,0.4,0c0,0,0,0,0.1,0s0.2,0,0.3,0c0,0,0,0,0.1,0l0,0c0.5-0.1,0.9-0.4,1.2-0.8l0,0
			c0.1-0.1,0.1-0.2,0.2-0.3v-0.1c0-0.1,0.1-0.2,0.1-0.3l0,0c0-0.2,1.3-5.5,6.3-5.6h0.1c4.1,0,5.4,3.5,5.8,4.9
			c-0.1,1,0.5,1.9,1.5,2.2c0.1,0,0.3,0,0.4,0l0,0H37c0.1,0,0.2,0,0.3,0c1-0.2,1.7-1.1,1.6-2.1c0.4-1.4,2-5,6.2-5.1
			c0.1,0,0.3,0,0.4,0c0,0,0,0,0.1,0l0,0c0.1,0,0.3,0,0.4,0c1-0.2,1.7-1.1,1.6-2.1c0.4-1.4,2-5,6.2-5.1c0.1,0,0.1,0,0.1,0
			c3.6,0,5,1.8,5.6,3c-2.4,1-4.3,2.9-4.6,4.2c-0.2,1,0.3,2,1.3,2.2s1.9-0.3,2.2-1.2c0.3-0.6,2.3-2.4,4.5-2.1c5.2,0.7,5.9,6.3,6,6.5
			c0.1,0.9,0.9,1.6,1.8,1.6c0.1,0,0.1,0,0.2,0c1-0.1,1.7-1,1.6-2c-0.4-3-2.7-8.8-9.1-9.7l0,0c-0.8-2.5-3.6-6.4-9.8-6.3
			c-3.8,0.1-6.4,2-8,4.2c-1.5-2.2-4-4.2-7.9-4.2c-0.1,0-0.1,0-0.2,0c-3.6,0.1-6.1,1.8-7.8,3.9c-1.5-2.1-4-3.9-7.7-3.9
			c-0.1,0-0.1,0-0.2,0c-5.6,0.1-8.5,4.2-9.6,7.2c-6.3,0.3-9.1,5.8-9.7,8.7C2.5,45.9,3.2,46.9,4.2,47.1z M37.7,32.9L37.7,32.9
			c3.1,0,4.7,1.9,5.4,3.5c-2.8,0.5-4.8,2.2-6.1,4c-1.1-1.6-2.7-3-4.9-3.7C32.9,35,34.5,32.9,37.7,32.9z M22.1,32.9h0.1
			c3,0,4.5,1.9,5.3,3.4c-3,0.5-5.2,2.2-6.5,4.1c-1-1.5-2.5-2.9-4.5-3.7C17.2,35.1,18.8,32.9,22.1,32.9z"/>
		<path d="M15.7,28.1c2.8,0,5.1-2.3,5.1-5.1s-2.3-5.1-5.1-5.1s-5.1,2.3-5.1,5.1S12.9,28.1,15.7,28.1z M15.7,20.6
			c1.3,0,2.3,1,2.3,2.3s-1,2.3-2.3,2.3s-2.3-1-2.3-2.3S14.4,20.6,15.7,20.6z"/>
		<path d="M49.6,17.3c4.2,0,7.6-3.4,7.6-7.6s-3.4-7.6-7.6-7.6S42,5.5,42,9.7S45.4,17.3,49.6,17.3z M49.6,4.8c2.7,0,4.8,2.2,4.8,4.8
			s-2.2,4.8-4.8,4.8s-4.8-2.2-4.8-4.8S46.9,4.8,49.6,4.8z"/>
		<path d="M68.2,34.3c2.9,0,5.3-2.4,5.3-5.3s-2.4-5.3-5.3-5.3s-5.3,2.4-5.3,5.3S65.2,34.3,68.2,34.3z M68.2,26.5
			c1.4,0,2.5,1.1,2.5,2.5s-1.1,2.5-2.5,2.5s-2.5-1.1-2.5-2.5S66.8,26.5,68.2,26.5z"/>
		<path d="M52.2,21.1c0,2.4,2,4.4,4.4,4.4s4.4-2,4.4-4.4s-2-4.4-4.4-4.4S52.2,18.7,52.2,21.1z M57.5,21.1c0,0.4-0.3,0.8-0.8,0.8
			c-0.4,0-0.8-0.3-0.8-0.8c0-0.4,0.3-0.8,0.8-0.8C57.1,20.3,57.5,20.7,57.5,21.1z"/>
		<path d="M35.2,26.9c2,0,3.6-1.6,3.6-3.6s-1.6-3.6-3.6-3.6s-3.6,1.6-3.6,3.6S33.2,26.9,35.2,26.9z"/>
		<path d="M27.1,20.7c2.3,0,4.2-1.9,4.2-4.2s-1.9-4.2-4.2-4.2s-4.2,1.9-4.2,4.2S24.8,20.7,27.1,20.7z M27.1,15.3
			c0.6,0,1.2,0.5,1.2,1.2c0,0.6-0.5,1.2-1.2,1.2c-0.6,0-1.2-0.5-1.2-1.2C26,15.8,26.5,15.3,27.1,15.3z"/>
		<path d="M38.8,67.7H23c-0.6,0-1.1,0.5-1.1,1.1s0.5,1.1,1.1,1.1h15.8c0.6,0,1.1-0.5,1.1-1.1C39.9,68.2,39.4,67.7,38.8,67.7z"/>
		<path d="M15.9,67.7h-4.3c-0.6,0-1.1,0.5-1.1,1.1s0.5,1.1,1.1,1.1h4.3c0.6,0,1.1-0.5,1.1-1.1S16.5,67.7,15.9,67.7z"/>
	</g>
	<path class="st0" d="M68.2,26.5c1.4,0,2.5,1.1,2.5,2.5s-1.1,2.5-2.5,2.5s-2.5-1.1-2.5-2.5S66.8,26.5,68.2,26.5z"/>
	<circle class="st0" cx="15.7" cy="23" r="2.3"/>
	<path class="st0" d="M45.5,45.7C45.6,45.7,45.5,45.7,45.5,45.7h12.2c-2.5,4-2.1,11.6-1.7,15H42.2c-0.6-9.8,1.1-13.2,2.2-14.3
		C45,45.8,45.4,45.7,45.5,45.7z"/>
	<circle class="st0" cx="27.1" cy="16.5" r="1.2"/>
</g>
</svg>
