<?xml version="1.0" encoding="utf-8"?>
<!-- Generator: Adobe Illustrator 23.0.2, SVG Export Plug-In . SVG Version: 6.00 Build 0)  -->
<svg version="1.1" id="Layer_1" xmlns="http://www.w3.org/2000/svg" xmlns:xlink="http://www.w3.org/1999/xlink" x="0px" y="0px"
	 viewBox="0 0 80 80" style="enable-background:new 0 0 80 80;" xml:space="preserve">
<style type="text/css">
	.st0{fill:#231F20;}
	.st1{fill:#FDF4A1;}
</style>
<g>
	<path class="st0" d="M77.2,33.6H73V14.7l0-0.4c-0.3-2-1.9-3.7-3.9-4v-0.1H5.2v0.1c-2,0.3-3.6,1.9-3.8,4v41.6c0,0.8,0.2,1.5,0.6,2.2
		c0.9,1.5,2.2,2.3,3.9,2.3h22.5v5.1h-4c-1.2,0-2.2,1-2.2,2.2c0,1.2,1,2.2,2.2,2.2h25.6c1.3,0,2.3-1,2.3-2.2c0-1.2-1-2.2-2.3-2.2h-4
		v-5.1H62v9.3c0,1,0.8,1.8,1.8,1.8h13.5c1,0,1.8-0.8,1.8-1.8V35.3C79,34.3,78.2,33.6,77.2,33.6z M62,35.3V56H5.8c0,0,0,0,0,0
		c0,0,0,0,0,0V14.6h62.7v18.9h-4.7C62.8,33.6,62,34.3,62,35.3z M75.5,68h-10V37.1h10V68z"/>
	<rect x="67.5" y="51.7" class="st1" width="2.1" height="2.1"/>
	<rect x="71.6" y="38.5" class="st1" width="2.1" height="2.1"/>
	<rect x="71.2" y="51.7" class="st1" width="2.1" height="2.1"/>
	<rect x="67.5" y="55.8" class="st1" width="2.1" height="2.1"/>
	<rect x="71.2" y="55.8" class="st1" width="2.1" height="2.1"/>
	<rect x="67.5" y="60" class="st1" width="2.1" height="2.1"/>
	<rect x="71.2" y="60" class="st1" width="2.1" height="2.1"/>
	<rect x="67.5" y="64.1" class="st1" width="2.1" height="2.1"/>
	<rect x="71.2" y="64.1" class="st1" width="2.1" height="2.1"/>
</g>
</svg>
